<mxfile host="app.diagrams.net" modified="2020-03-18T19:06:22.008Z" agent="Mozilla/5.0 (Windows NT 10.0; Win64; x64) AppleWebKit/537.36 (KHTML, like Gecko) Chrome/74.0.3729.131 Safari/537.36" etag="OPCISiy5ub_wupI5kwZ7" version="12.8.5" type="github">
  <diagram id="mxiK_QAR-Pll1zWQ23kL" name="Page-1">
    <mxGraphModel dx="1038" dy="585" grid="0" gridSize="10" guides="1" tooltips="1" connect="1" arrows="1" fold="1" page="1" pageScale="1" pageWidth="5000" pageHeight="5000" math="0" shadow="0">
      <root>
        <mxCell id="0" />
        <mxCell id="1" parent="0" />
        <mxCell id="0sapLvZbMzvc2D1UZpV_-13" style="edgeStyle=orthogonalEdgeStyle;rounded=0;orthogonalLoop=1;jettySize=auto;html=1;" edge="1" parent="1" source="0sapLvZbMzvc2D1UZpV_-12">
          <mxGeometry relative="1" as="geometry">
            <mxPoint x="928" y="825" as="targetPoint" />
          </mxGeometry>
        </mxCell>
        <mxCell id="0sapLvZbMzvc2D1UZpV_-28" style="edgeStyle=orthogonalEdgeStyle;rounded=0;orthogonalLoop=1;jettySize=auto;html=1;endArrow=block;endFill=0;" edge="1" parent="1" source="0sapLvZbMzvc2D1UZpV_-20" target="0sapLvZbMzvc2D1UZpV_-16">
          <mxGeometry relative="1" as="geometry" />
        </mxCell>
        <mxCell id="0sapLvZbMzvc2D1UZpV_-38" style="edgeStyle=orthogonalEdgeStyle;rounded=0;orthogonalLoop=1;jettySize=auto;html=1;endArrow=classic;endFill=1;" edge="1" parent="1" source="0sapLvZbMzvc2D1UZpV_-20" target="0sapLvZbMzvc2D1UZpV_-24">
          <mxGeometry relative="1" as="geometry" />
        </mxCell>
        <mxCell id="0sapLvZbMzvc2D1UZpV_-33" style="edgeStyle=orthogonalEdgeStyle;rounded=0;orthogonalLoop=1;jettySize=auto;html=1;endArrow=block;endFill=0;" edge="1" parent="1" source="0sapLvZbMzvc2D1UZpV_-29" target="0sapLvZbMzvc2D1UZpV_-24">
          <mxGeometry relative="1" as="geometry">
            <mxPoint x="906" y="1002" as="targetPoint" />
            <Array as="points">
              <mxPoint x="1024" y="1114" />
            </Array>
          </mxGeometry>
        </mxCell>
        <mxCell id="0sapLvZbMzvc2D1UZpV_-71" style="edgeStyle=orthogonalEdgeStyle;rounded=0;orthogonalLoop=1;jettySize=auto;html=1;endArrow=blockThin;endFill=0;fontColor=#FF5A30;" edge="1" parent="1" source="0sapLvZbMzvc2D1UZpV_-34" target="0sapLvZbMzvc2D1UZpV_-24">
          <mxGeometry relative="1" as="geometry">
            <Array as="points" />
          </mxGeometry>
        </mxCell>
        <mxCell id="0sapLvZbMzvc2D1UZpV_-72" style="edgeStyle=orthogonalEdgeStyle;rounded=0;orthogonalLoop=1;jettySize=auto;html=1;endArrow=classic;endFill=1;fontColor=#FF5A30;" edge="1" parent="1" source="0sapLvZbMzvc2D1UZpV_-67" target="0sapLvZbMzvc2D1UZpV_-39">
          <mxGeometry relative="1" as="geometry">
            <Array as="points">
              <mxPoint x="1352" y="834" />
              <mxPoint x="1352" y="834" />
            </Array>
          </mxGeometry>
        </mxCell>
        <mxCell id="0sapLvZbMzvc2D1UZpV_-79" style="edgeStyle=orthogonalEdgeStyle;rounded=0;orthogonalLoop=1;jettySize=auto;html=1;endArrow=classic;endFill=1;fontColor=#1C0A05;" edge="1" parent="1" source="0sapLvZbMzvc2D1UZpV_-20" target="0sapLvZbMzvc2D1UZpV_-70">
          <mxGeometry relative="1" as="geometry" />
        </mxCell>
        <mxCell id="0sapLvZbMzvc2D1UZpV_-20" value="Application" style="swimlane;fontStyle=1;align=center;verticalAlign=top;childLayout=stackLayout;horizontal=1;startSize=26;horizontalStack=0;resizeParent=1;resizeParentMax=0;resizeLast=0;collapsible=1;marginBottom=0;" vertex="1" parent="1">
          <mxGeometry x="931" y="792" width="160" height="112" as="geometry" />
        </mxCell>
        <mxCell id="0sapLvZbMzvc2D1UZpV_-21" value="+ field: type" style="text;strokeColor=none;fillColor=none;align=left;verticalAlign=top;spacingLeft=4;spacingRight=4;overflow=hidden;rotatable=0;points=[[0,0.5],[1,0.5]];portConstraint=eastwest;" vertex="1" parent="0sapLvZbMzvc2D1UZpV_-20">
          <mxGeometry y="26" width="160" height="26" as="geometry" />
        </mxCell>
        <mxCell id="0sapLvZbMzvc2D1UZpV_-22" value="" style="line;strokeWidth=1;fillColor=none;align=left;verticalAlign=middle;spacingTop=-1;spacingLeft=3;spacingRight=3;rotatable=0;labelPosition=right;points=[];portConstraint=eastwest;" vertex="1" parent="0sapLvZbMzvc2D1UZpV_-20">
          <mxGeometry y="52" width="160" height="8" as="geometry" />
        </mxCell>
        <mxCell id="0sapLvZbMzvc2D1UZpV_-117" value="+ Update()" style="text;strokeColor=none;fillColor=none;align=left;verticalAlign=top;spacingLeft=4;spacingRight=4;overflow=hidden;rotatable=0;points=[[0,0.5],[1,0.5]];portConstraint=eastwest;fontColor=#1C0A05;" vertex="1" parent="0sapLvZbMzvc2D1UZpV_-20">
          <mxGeometry y="60" width="160" height="26" as="geometry" />
        </mxCell>
        <mxCell id="0sapLvZbMzvc2D1UZpV_-23" value="+ Draw(type): type" style="text;strokeColor=none;fillColor=none;align=left;verticalAlign=top;spacingLeft=4;spacingRight=4;overflow=hidden;rotatable=0;points=[[0,0.5],[1,0.5]];portConstraint=eastwest;" vertex="1" parent="0sapLvZbMzvc2D1UZpV_-20">
          <mxGeometry y="86" width="160" height="26" as="geometry" />
        </mxCell>
        <mxCell id="0sapLvZbMzvc2D1UZpV_-126" style="edgeStyle=orthogonalEdgeStyle;rounded=0;orthogonalLoop=1;jettySize=auto;html=1;endArrow=classic;endFill=1;fontColor=#1C0A05;" edge="1" parent="1" source="0sapLvZbMzvc2D1UZpV_-24" target="0sapLvZbMzvc2D1UZpV_-39">
          <mxGeometry relative="1" as="geometry" />
        </mxCell>
        <mxCell id="0sapLvZbMzvc2D1UZpV_-24" value="Scene" style="swimlane;fontStyle=1;align=center;verticalAlign=top;childLayout=stackLayout;horizontal=1;startSize=26;horizontalStack=0;resizeParent=1;resizeParentMax=0;resizeLast=0;collapsible=1;marginBottom=0;" vertex="1" parent="1">
          <mxGeometry x="906" y="963" width="185" height="82" as="geometry" />
        </mxCell>
        <mxCell id="0sapLvZbMzvc2D1UZpV_-54" value="+ Update()" style="text;html=1;" vertex="1" parent="0sapLvZbMzvc2D1UZpV_-24">
          <mxGeometry y="26" width="185" height="28" as="geometry" />
        </mxCell>
        <mxCell id="0sapLvZbMzvc2D1UZpV_-130" value="+ Draw()" style="text;html=1;" vertex="1" parent="0sapLvZbMzvc2D1UZpV_-24">
          <mxGeometry y="54" width="185" height="28" as="geometry" />
        </mxCell>
        <mxCell id="0sapLvZbMzvc2D1UZpV_-16" value="Game" style="swimlane;fontStyle=1;align=center;verticalAlign=top;childLayout=stackLayout;horizontal=1;startSize=26;horizontalStack=0;resizeParent=1;resizeParentMax=0;resizeLast=0;collapsible=1;marginBottom=0;fontColor=#FF5A30;" vertex="1" parent="1">
          <mxGeometry x="931" y="604" width="160" height="86" as="geometry" />
        </mxCell>
        <mxCell id="0sapLvZbMzvc2D1UZpV_-17" value="+ field: type" style="text;strokeColor=none;fillColor=none;align=left;verticalAlign=top;spacingLeft=4;spacingRight=4;overflow=hidden;rotatable=0;points=[[0,0.5],[1,0.5]];portConstraint=eastwest;" vertex="1" parent="0sapLvZbMzvc2D1UZpV_-16">
          <mxGeometry y="26" width="160" height="26" as="geometry" />
        </mxCell>
        <mxCell id="0sapLvZbMzvc2D1UZpV_-18" value="" style="line;strokeWidth=1;fillColor=none;align=left;verticalAlign=middle;spacingTop=-1;spacingLeft=3;spacingRight=3;rotatable=0;labelPosition=right;points=[];portConstraint=eastwest;" vertex="1" parent="0sapLvZbMzvc2D1UZpV_-16">
          <mxGeometry y="52" width="160" height="8" as="geometry" />
        </mxCell>
        <mxCell id="0sapLvZbMzvc2D1UZpV_-19" value="+ method(type): type" style="text;strokeColor=none;fillColor=none;align=left;verticalAlign=top;spacingLeft=4;spacingRight=4;overflow=hidden;rotatable=0;points=[[0,0.5],[1,0.5]];portConstraint=eastwest;" vertex="1" parent="0sapLvZbMzvc2D1UZpV_-16">
          <mxGeometry y="60" width="160" height="26" as="geometry" />
        </mxCell>
        <mxCell id="0sapLvZbMzvc2D1UZpV_-109" style="edgeStyle=orthogonalEdgeStyle;rounded=0;orthogonalLoop=1;jettySize=auto;html=1;endArrow=classic;endFill=1;fontColor=#1C0A05;" edge="1" parent="1" source="0sapLvZbMzvc2D1UZpV_-34" target="0sapLvZbMzvc2D1UZpV_-105">
          <mxGeometry relative="1" as="geometry">
            <Array as="points">
              <mxPoint x="636" y="1196" />
            </Array>
          </mxGeometry>
        </mxCell>
        <mxCell id="0sapLvZbMzvc2D1UZpV_-80" style="edgeStyle=orthogonalEdgeStyle;rounded=0;orthogonalLoop=1;jettySize=auto;html=1;endArrow=classic;endFill=1;fontColor=#1C0A05;" edge="1" parent="1" source="0sapLvZbMzvc2D1UZpV_-67" target="0sapLvZbMzvc2D1UZpV_-75">
          <mxGeometry relative="1" as="geometry" />
        </mxCell>
        <mxCell id="0sapLvZbMzvc2D1UZpV_-114" style="edgeStyle=orthogonalEdgeStyle;rounded=0;orthogonalLoop=1;jettySize=auto;html=1;endArrow=classic;endFill=1;fontColor=#1C0A05;" edge="1" parent="1" source="0sapLvZbMzvc2D1UZpV_-75" target="0sapLvZbMzvc2D1UZpV_-93">
          <mxGeometry relative="1" as="geometry" />
        </mxCell>
        <mxCell id="0sapLvZbMzvc2D1UZpV_-75" value="DebugInfoGroup" style="swimlane;fontStyle=1;align=center;verticalAlign=top;childLayout=stackLayout;horizontal=1;startSize=26;horizontalStack=0;resizeParent=1;resizeParentMax=0;resizeLast=0;collapsible=1;marginBottom=0;fontColor=#1C0A05;" vertex="1" parent="1">
          <mxGeometry x="1228" y="604" width="160" height="86" as="geometry" />
        </mxCell>
        <mxCell id="0sapLvZbMzvc2D1UZpV_-76" value="+ field: type" style="text;strokeColor=none;fillColor=none;align=left;verticalAlign=top;spacingLeft=4;spacingRight=4;overflow=hidden;rotatable=0;points=[[0,0.5],[1,0.5]];portConstraint=eastwest;" vertex="1" parent="0sapLvZbMzvc2D1UZpV_-75">
          <mxGeometry y="26" width="160" height="26" as="geometry" />
        </mxCell>
        <mxCell id="0sapLvZbMzvc2D1UZpV_-77" value="" style="line;strokeWidth=1;fillColor=none;align=left;verticalAlign=middle;spacingTop=-1;spacingLeft=3;spacingRight=3;rotatable=0;labelPosition=right;points=[];portConstraint=eastwest;" vertex="1" parent="0sapLvZbMzvc2D1UZpV_-75">
          <mxGeometry y="52" width="160" height="8" as="geometry" />
        </mxCell>
        <mxCell id="0sapLvZbMzvc2D1UZpV_-78" value="+ method(type): type" style="text;strokeColor=none;fillColor=none;align=left;verticalAlign=top;spacingLeft=4;spacingRight=4;overflow=hidden;rotatable=0;points=[[0,0.5],[1,0.5]];portConstraint=eastwest;" vertex="1" parent="0sapLvZbMzvc2D1UZpV_-75">
          <mxGeometry y="60" width="160" height="26" as="geometry" />
        </mxCell>
        <mxCell id="0sapLvZbMzvc2D1UZpV_-110" style="edgeStyle=orthogonalEdgeStyle;rounded=0;orthogonalLoop=1;jettySize=auto;html=1;endArrow=classic;endFill=1;fontColor=#1C0A05;" edge="1" parent="1" source="0sapLvZbMzvc2D1UZpV_-23" target="0sapLvZbMzvc2D1UZpV_-105">
          <mxGeometry relative="1" as="geometry">
            <Array as="points">
              <mxPoint x="953" y="933" />
              <mxPoint x="632" y="933" />
            </Array>
          </mxGeometry>
        </mxCell>
        <mxCell id="0sapLvZbMzvc2D1UZpV_-81" value="DebugInfoUpdateCallback" style="swimlane;fontStyle=1;align=center;verticalAlign=top;childLayout=stackLayout;horizontal=1;startSize=26;horizontalStack=0;resizeParent=1;resizeParentMax=0;resizeLast=0;collapsible=1;marginBottom=0;fontColor=#1C0A05;" vertex="1" parent="1">
          <mxGeometry x="1470" y="485" width="160" height="86" as="geometry" />
        </mxCell>
        <mxCell id="0sapLvZbMzvc2D1UZpV_-82" value="+ field: type" style="text;strokeColor=none;fillColor=none;align=left;verticalAlign=top;spacingLeft=4;spacingRight=4;overflow=hidden;rotatable=0;points=[[0,0.5],[1,0.5]];portConstraint=eastwest;" vertex="1" parent="0sapLvZbMzvc2D1UZpV_-81">
          <mxGeometry y="26" width="160" height="26" as="geometry" />
        </mxCell>
        <mxCell id="0sapLvZbMzvc2D1UZpV_-83" value="" style="line;strokeWidth=1;fillColor=none;align=left;verticalAlign=middle;spacingTop=-1;spacingLeft=3;spacingRight=3;rotatable=0;labelPosition=right;points=[];portConstraint=eastwest;" vertex="1" parent="0sapLvZbMzvc2D1UZpV_-81">
          <mxGeometry y="52" width="160" height="8" as="geometry" />
        </mxCell>
        <mxCell id="0sapLvZbMzvc2D1UZpV_-84" value="+ method(type): type" style="text;strokeColor=none;fillColor=none;align=left;verticalAlign=top;spacingLeft=4;spacingRight=4;overflow=hidden;rotatable=0;points=[[0,0.5],[1,0.5]];portConstraint=eastwest;" vertex="1" parent="0sapLvZbMzvc2D1UZpV_-81">
          <mxGeometry y="60" width="160" height="26" as="geometry" />
        </mxCell>
        <mxCell id="0sapLvZbMzvc2D1UZpV_-34" value="GameScene" style="swimlane;fontStyle=1;align=center;verticalAlign=top;childLayout=stackLayout;horizontal=1;startSize=26;horizontalStack=0;resizeParent=1;resizeParentMax=0;resizeLast=0;collapsible=1;marginBottom=0;" vertex="1" parent="1">
          <mxGeometry x="884" y="1153" width="160" height="86" as="geometry" />
        </mxCell>
        <mxCell id="0sapLvZbMzvc2D1UZpV_-35" value="+ ship : Ship" style="text;strokeColor=none;fillColor=none;align=left;verticalAlign=top;spacingLeft=4;spacingRight=4;overflow=hidden;rotatable=0;points=[[0,0.5],[1,0.5]];portConstraint=eastwest;" vertex="1" parent="0sapLvZbMzvc2D1UZpV_-34">
          <mxGeometry y="26" width="160" height="26" as="geometry" />
        </mxCell>
        <mxCell id="0sapLvZbMzvc2D1UZpV_-36" value="" style="line;strokeWidth=1;fillColor=none;align=left;verticalAlign=middle;spacingTop=-1;spacingLeft=3;spacingRight=3;rotatable=0;labelPosition=right;points=[];portConstraint=eastwest;" vertex="1" parent="0sapLvZbMzvc2D1UZpV_-34">
          <mxGeometry y="52" width="160" height="8" as="geometry" />
        </mxCell>
        <mxCell id="0sapLvZbMzvc2D1UZpV_-37" value="+ GameScene( Track track ) " style="text;strokeColor=none;fillColor=none;align=left;verticalAlign=top;spacingLeft=4;spacingRight=4;overflow=hidden;rotatable=0;points=[[0,0.5],[1,0.5]];portConstraint=eastwest;" vertex="1" parent="0sapLvZbMzvc2D1UZpV_-34">
          <mxGeometry y="60" width="160" height="26" as="geometry" />
        </mxCell>
        <mxCell id="0sapLvZbMzvc2D1UZpV_-29" value="MainMenuScene" style="swimlane;fontStyle=1;align=center;verticalAlign=top;childLayout=stackLayout;horizontal=1;startSize=26;horizontalStack=0;resizeParent=1;resizeParentMax=0;resizeLast=0;collapsible=1;marginBottom=0;" vertex="1" parent="1">
          <mxGeometry x="1165" y="1153" width="160" height="86" as="geometry" />
        </mxCell>
        <mxCell id="0sapLvZbMzvc2D1UZpV_-30" value="+ field: type" style="text;strokeColor=none;fillColor=none;align=left;verticalAlign=top;spacingLeft=4;spacingRight=4;overflow=hidden;rotatable=0;points=[[0,0.5],[1,0.5]];portConstraint=eastwest;" vertex="1" parent="0sapLvZbMzvc2D1UZpV_-29">
          <mxGeometry y="26" width="160" height="26" as="geometry" />
        </mxCell>
        <mxCell id="0sapLvZbMzvc2D1UZpV_-31" value="" style="line;strokeWidth=1;fillColor=none;align=left;verticalAlign=middle;spacingTop=-1;spacingLeft=3;spacingRight=3;rotatable=0;labelPosition=right;points=[];portConstraint=eastwest;" vertex="1" parent="0sapLvZbMzvc2D1UZpV_-29">
          <mxGeometry y="52" width="160" height="8" as="geometry" />
        </mxCell>
        <mxCell id="0sapLvZbMzvc2D1UZpV_-32" value="+ method(type): type" style="text;strokeColor=none;fillColor=none;align=left;verticalAlign=top;spacingLeft=4;spacingRight=4;overflow=hidden;rotatable=0;points=[[0,0.5],[1,0.5]];portConstraint=eastwest;" vertex="1" parent="0sapLvZbMzvc2D1UZpV_-29">
          <mxGeometry y="60" width="160" height="26" as="geometry" />
        </mxCell>
        <mxCell id="0sapLvZbMzvc2D1UZpV_-116" style="edgeStyle=orthogonalEdgeStyle;rounded=0;orthogonalLoop=1;jettySize=auto;html=1;endArrow=classic;endFill=1;fontColor=#1C0A05;" edge="1" parent="1" source="0sapLvZbMzvc2D1UZpV_-93" target="0sapLvZbMzvc2D1UZpV_-81">
          <mxGeometry relative="1" as="geometry" />
        </mxCell>
        <mxCell id="0sapLvZbMzvc2D1UZpV_-93" value="DebugInfo" style="swimlane;fontStyle=1;align=center;verticalAlign=top;childLayout=stackLayout;horizontal=1;startSize=26;horizontalStack=0;resizeParent=1;resizeParentMax=0;resizeLast=0;collapsible=1;marginBottom=0;fontColor=#1C0A05;" vertex="1" parent="1">
          <mxGeometry x="1470" y="604" width="160" height="86" as="geometry" />
        </mxCell>
        <mxCell id="0sapLvZbMzvc2D1UZpV_-94" value="+ label : string" style="text;strokeColor=none;fillColor=none;align=left;verticalAlign=top;spacingLeft=4;spacingRight=4;overflow=hidden;rotatable=0;points=[[0,0.5],[1,0.5]];portConstraint=eastwest;" vertex="1" parent="0sapLvZbMzvc2D1UZpV_-93">
          <mxGeometry y="26" width="160" height="26" as="geometry" />
        </mxCell>
        <mxCell id="0sapLvZbMzvc2D1UZpV_-95" value="" style="line;strokeWidth=1;fillColor=none;align=left;verticalAlign=middle;spacingTop=-1;spacingLeft=3;spacingRight=3;rotatable=0;labelPosition=right;points=[];portConstraint=eastwest;" vertex="1" parent="0sapLvZbMzvc2D1UZpV_-93">
          <mxGeometry y="52" width="160" height="8" as="geometry" />
        </mxCell>
        <mxCell id="0sapLvZbMzvc2D1UZpV_-96" value="+ Update() : " style="text;strokeColor=none;fillColor=none;align=left;verticalAlign=top;spacingLeft=4;spacingRight=4;overflow=hidden;rotatable=0;points=[[0,0.5],[1,0.5]];portConstraint=eastwest;" vertex="1" parent="0sapLvZbMzvc2D1UZpV_-93">
          <mxGeometry y="60" width="160" height="26" as="geometry" />
        </mxCell>
        <mxCell id="0sapLvZbMzvc2D1UZpV_-39" value="Camera" style="swimlane;fontStyle=1;align=center;verticalAlign=top;childLayout=stackLayout;horizontal=1;startSize=26;horizontalStack=0;resizeParent=1;resizeParentMax=0;resizeLast=0;collapsible=1;marginBottom=0;" vertex="1" parent="1">
          <mxGeometry x="1470" y="809" width="160" height="86" as="geometry" />
        </mxCell>
        <mxCell id="0sapLvZbMzvc2D1UZpV_-40" value="+ label : string" style="text;strokeColor=none;fillColor=none;align=left;verticalAlign=top;spacingLeft=4;spacingRight=4;overflow=hidden;rotatable=0;points=[[0,0.5],[1,0.5]];portConstraint=eastwest;" vertex="1" parent="0sapLvZbMzvc2D1UZpV_-39">
          <mxGeometry y="26" width="160" height="26" as="geometry" />
        </mxCell>
        <mxCell id="0sapLvZbMzvc2D1UZpV_-41" value="" style="line;strokeWidth=1;fillColor=none;align=left;verticalAlign=middle;spacingTop=-1;spacingLeft=3;spacingRight=3;rotatable=0;labelPosition=right;points=[];portConstraint=eastwest;" vertex="1" parent="0sapLvZbMzvc2D1UZpV_-39">
          <mxGeometry y="52" width="160" height="8" as="geometry" />
        </mxCell>
        <mxCell id="0sapLvZbMzvc2D1UZpV_-42" value="+ AddDrawable(vararg)" style="text;strokeColor=none;fillColor=none;align=left;verticalAlign=top;spacingLeft=4;spacingRight=4;overflow=hidden;rotatable=0;points=[[0,0.5],[1,0.5]];portConstraint=eastwest;" vertex="1" parent="0sapLvZbMzvc2D1UZpV_-39">
          <mxGeometry y="60" width="160" height="26" as="geometry" />
        </mxCell>
        <mxCell id="0sapLvZbMzvc2D1UZpV_-105" value="Track" style="swimlane;fontStyle=1;align=center;verticalAlign=top;childLayout=stackLayout;horizontal=1;startSize=26;horizontalStack=0;resizeParent=1;resizeParentMax=0;resizeLast=0;collapsible=1;marginBottom=0;fontColor=#1C0A05;" vertex="1" parent="1">
          <mxGeometry x="557" y="1003" width="160" height="86" as="geometry" />
        </mxCell>
        <mxCell id="0sapLvZbMzvc2D1UZpV_-106" value="+ field: type" style="text;strokeColor=none;fillColor=none;align=left;verticalAlign=top;spacingLeft=4;spacingRight=4;overflow=hidden;rotatable=0;points=[[0,0.5],[1,0.5]];portConstraint=eastwest;" vertex="1" parent="0sapLvZbMzvc2D1UZpV_-105">
          <mxGeometry y="26" width="160" height="26" as="geometry" />
        </mxCell>
        <mxCell id="0sapLvZbMzvc2D1UZpV_-107" value="" style="line;strokeWidth=1;fillColor=none;align=left;verticalAlign=middle;spacingTop=-1;spacingLeft=3;spacingRight=3;rotatable=0;labelPosition=right;points=[];portConstraint=eastwest;" vertex="1" parent="0sapLvZbMzvc2D1UZpV_-105">
          <mxGeometry y="52" width="160" height="8" as="geometry" />
        </mxCell>
        <mxCell id="0sapLvZbMzvc2D1UZpV_-108" value="+ method(type): type" style="text;strokeColor=none;fillColor=none;align=left;verticalAlign=top;spacingLeft=4;spacingRight=4;overflow=hidden;rotatable=0;points=[[0,0.5],[1,0.5]];portConstraint=eastwest;" vertex="1" parent="0sapLvZbMzvc2D1UZpV_-105">
          <mxGeometry y="60" width="160" height="26" as="geometry" />
        </mxCell>
        <mxCell id="0sapLvZbMzvc2D1UZpV_-67" value="DebugInfoOverlay" style="swimlane;fontStyle=1;align=center;verticalAlign=top;childLayout=stackLayout;horizontal=1;startSize=26;horizontalStack=0;resizeParent=1;resizeParentMax=0;resizeLast=0;collapsible=1;marginBottom=0;" vertex="1" parent="1">
          <mxGeometry x="1217" y="809" width="182" height="52" as="geometry" />
        </mxCell>
        <mxCell id="0sapLvZbMzvc2D1UZpV_-70" value="+ AddGroup(DebugInfoGroup)" style="text;strokeColor=none;fillColor=none;align=left;verticalAlign=top;spacingLeft=4;spacingRight=4;overflow=hidden;rotatable=0;points=[[0,0.5],[1,0.5]];portConstraint=eastwest;" vertex="1" parent="0sapLvZbMzvc2D1UZpV_-67">
          <mxGeometry y="26" width="182" height="26" as="geometry" />
        </mxCell>
        <mxCell id="0sapLvZbMzvc2D1UZpV_-132" style="edgeStyle=orthogonalEdgeStyle;rounded=0;orthogonalLoop=1;jettySize=auto;html=1;endArrow=classic;endFill=1;fontColor=#1C0A05;" edge="1" parent="1" source="0sapLvZbMzvc2D1UZpV_-122" target="0sapLvZbMzvc2D1UZpV_-20">
          <mxGeometry relative="1" as="geometry">
            <mxPoint x="911" y="891" as="targetPoint" />
          </mxGeometry>
        </mxCell>
        <mxCell id="0sapLvZbMzvc2D1UZpV_-122" value="TrackGenerator" style="swimlane;fontStyle=1;align=center;verticalAlign=top;childLayout=stackLayout;horizontal=1;startSize=26;horizontalStack=0;resizeParent=1;resizeParentMax=0;resizeLast=0;collapsible=1;marginBottom=0;fontColor=#1C0A05;" vertex="1" parent="1">
          <mxGeometry x="359" y="859" width="160" height="86" as="geometry" />
        </mxCell>
        <mxCell id="0sapLvZbMzvc2D1UZpV_-123" value="+ field: type" style="text;strokeColor=none;fillColor=none;align=left;verticalAlign=top;spacingLeft=4;spacingRight=4;overflow=hidden;rotatable=0;points=[[0,0.5],[1,0.5]];portConstraint=eastwest;" vertex="1" parent="0sapLvZbMzvc2D1UZpV_-122">
          <mxGeometry y="26" width="160" height="26" as="geometry" />
        </mxCell>
        <mxCell id="0sapLvZbMzvc2D1UZpV_-124" value="" style="line;strokeWidth=1;fillColor=none;align=left;verticalAlign=middle;spacingTop=-1;spacingLeft=3;spacingRight=3;rotatable=0;labelPosition=right;points=[];portConstraint=eastwest;" vertex="1" parent="0sapLvZbMzvc2D1UZpV_-122">
          <mxGeometry y="52" width="160" height="8" as="geometry" />
        </mxCell>
        <mxCell id="0sapLvZbMzvc2D1UZpV_-125" value="+ GetTrack(byte[] trackData)" style="text;strokeColor=none;fillColor=none;align=left;verticalAlign=top;spacingLeft=4;spacingRight=4;overflow=hidden;rotatable=0;points=[[0,0.5],[1,0.5]];portConstraint=eastwest;" vertex="1" parent="0sapLvZbMzvc2D1UZpV_-122">
          <mxGeometry y="60" width="160" height="26" as="geometry" />
        </mxCell>
        <mxCell id="0sapLvZbMzvc2D1UZpV_-12" value="Main" style="swimlane;fontStyle=0;childLayout=stackLayout;horizontal=1;startSize=26;fillColor=none;horizontalStack=0;resizeParent=1;resizeParentMax=0;resizeLast=0;collapsible=1;marginBottom=0;" vertex="1" parent="1">
          <mxGeometry x="687" y="757" width="140" height="52" as="geometry" />
        </mxCell>
      </root>
    </mxGraphModel>
  </diagram>
</mxfile>
